<?xml version="1.0" encoding="utf-8"?>
<!-- Generator: Adobe Illustrator 19.0.0, SVG Export Plug-In . SVG Version: 6.00 Build 0)  -->
<svg version="1.1" id="Layer_1" xmlns="http://www.w3.org/2000/svg" xmlns:xlink="http://www.w3.org/1999/xlink" x="0px" y="0px"
	 viewBox="0 0 413 83.5" style="enable-background:new 0 0 413 83.5;" xml:space="preserve">
<style type="text/css">
	.st0{opacity:0.2;fill:#58A4B0;}
	.st1{fill:#58A4B0;}
	.st2{fill:none;}
	.st3{fill:#383F51;}
</style>
<g id="XMLID_6_">
	<path id="XMLID_57_" class="st0" d="M306.1,86.6h-8.6l30.5-87.1h8.4L306.1,86.6z"/>
</g>
<g id="XMLID_5_">
	<g id="XMLID_3_">
		<path id="XMLID_55_" class="st1" d="M14.9,38.2l42.6,17.5L54.4,65L2.6,43v-9.6l51.8-22l3.1,9.2L14.9,38.2z"/>
	</g>
	<g id="XMLID_4_">
		<path id="XMLID_20_" class="st1" d="M355.6,20.7l3.1-9.2l51.8,22V43l-51.8,22l-3.1-9.2l42.6-17.5L355.6,20.7z"/>
	</g>
</g>
<g id="XMLID_1_">
	<rect id="XMLID_53_" x="68.9" y="22.2" class="st2" width="428.3" height="195.6"/>
	<path id="XMLID_21_" class="st3" d="M79.8,25c3.9,0,6.9,0.7,9,2.1c2.1,1.4,3.2,3.6,3.2,6.8c0,3.2-1.1,5.5-3.2,6.9
		c-2.1,1.4-5.2,2.1-9.1,2.1h-1.9v8.8h-5.9v-26c1.3-0.3,2.7-0.4,4.1-0.5C77.5,25.1,78.7,25,79.8,25z M80.2,30.1c-0.4,0-0.9,0-1.3,0
		c-0.4,0-0.8,0.1-1.1,0.1v7.6h1.9c2.1,0,3.6-0.3,4.6-0.8c1-0.6,1.6-1.6,1.6-3.1c0-0.7-0.1-1.3-0.4-1.8c-0.3-0.5-0.6-0.9-1.1-1.2
		c-0.5-0.3-1.1-0.5-1.8-0.6C81.8,30.1,81.1,30.1,80.2,30.1z"/>
	<path id="XMLID_24_" class="st3" d="M102.4,31.1c1.7,0,3.1,0.2,4.2,0.6c1.1,0.4,2,0.9,2.7,1.6c0.7,0.7,1.1,1.6,1.4,2.6
		c0.3,1,0.4,2.1,0.4,3.4v11.8c-0.8,0.2-1.9,0.4-3.4,0.6c-1.4,0.2-3.2,0.4-5.2,0.4c-1.3,0-2.5-0.1-3.5-0.3s-2-0.6-2.7-1.1
		c-0.8-0.5-1.3-1.2-1.7-2c-0.4-0.8-0.6-1.9-0.6-3.1c0-1.2,0.2-2.2,0.7-3c0.5-0.8,1.1-1.5,1.9-1.9c0.8-0.5,1.7-0.8,2.7-1
		c1-0.2,2.1-0.3,3.2-0.3c0.7,0,1.4,0,2,0.1c0.6,0.1,1,0.1,1.4,0.2v-0.5c0-1-0.3-1.7-0.9-2.3c-0.6-0.6-1.6-0.9-3-0.9
		c-1,0-1.9,0.1-2.8,0.2c-0.9,0.1-1.7,0.3-2.4,0.6l-0.7-4.6c0.3-0.1,0.7-0.2,1.2-0.3c0.5-0.1,1-0.2,1.6-0.3c0.6-0.1,1.2-0.2,1.8-0.2
		C101.1,31.2,101.8,31.1,102.4,31.1z M102.9,47.7c0.6,0,1.1,0,1.6,0c0.5,0,0.9-0.1,1.2-0.1v-4.3c-0.2-0.1-0.6-0.1-1-0.2
		s-0.9-0.1-1.3-0.1c-0.5,0-1,0-1.5,0.1c-0.5,0.1-0.9,0.2-1.2,0.4c-0.4,0.2-0.6,0.4-0.8,0.7c-0.2,0.3-0.3,0.7-0.3,1.1
		c0,0.9,0.3,1.5,0.9,1.8C101,47.5,101.8,47.7,102.9,47.7z"/>
	<path id="XMLID_27_" class="st3" d="M128,40.2c-0.5,1.9-1,3.8-1.6,5.7c-0.6,1.9-1.2,3.8-1.8,5.7h-4.4c-0.5-1.1-1-2.3-1.5-3.8
		c-0.5-1.5-1.1-3.1-1.7-4.8c-0.6-1.7-1.2-3.6-1.7-5.5s-1.2-3.9-1.7-5.9h6c0.2,0.9,0.4,1.9,0.7,3c0.2,1.1,0.5,2.2,0.8,3.3
		c0.3,1.1,0.5,2.3,0.8,3.4c0.3,1.2,0.6,2.3,0.9,3.3c0.3-1.1,0.7-2.3,1-3.4c0.3-1.2,0.6-2.3,0.9-3.4c0.3-1.1,0.6-2.2,0.8-3.3
		c0.3-1.1,0.5-2,0.7-2.9h4.1c0.2,0.9,0.4,1.9,0.7,2.9c0.3,1.1,0.5,2.1,0.8,3.3c0.3,1.1,0.6,2.3,0.9,3.4c0.3,1.2,0.6,2.3,1,3.4
		c0.3-1.1,0.6-2.2,0.9-3.3c0.3-1.2,0.6-2.3,0.9-3.4c0.3-1.1,0.5-2.2,0.8-3.3c0.2-1.1,0.5-2.1,0.7-3h5.9c-0.6,2-1.1,3.9-1.7,5.9
		c-0.6,1.9-1.2,3.8-1.7,5.5c-0.6,1.7-1.1,3.3-1.7,4.8c-0.5,1.5-1,2.7-1.5,3.8h-4.4c-0.6-1.9-1.3-3.8-1.9-5.7
		C129.1,44,128.5,42.1,128,40.2z"/>
	<path id="XMLID_29_" class="st3" d="M144.3,41.8c0-1.8,0.3-3.3,0.8-4.7c0.5-1.3,1.3-2.4,2.1-3.3s1.9-1.6,3.1-2
		c1.2-0.5,2.3-0.7,3.6-0.7c2.8,0,5.1,0.9,6.7,2.6c1.6,1.7,2.5,4.3,2.5,7.7c0,0.3,0,0.7,0,1.1c0,0.4-0.1,0.7-0.1,1h-12.8
		c0.1,1.2,0.7,2.1,1.6,2.8c1,0.7,2.3,1,3.9,1c1,0,2.1-0.1,3.1-0.3c1-0.2,1.8-0.4,2.5-0.7l0.8,4.6c-0.3,0.2-0.7,0.3-1.2,0.5
		c-0.5,0.2-1.1,0.3-1.7,0.4c-0.6,0.1-1.3,0.2-2,0.3c-0.7,0.1-1.4,0.1-2.1,0.1c-1.8,0-3.4-0.3-4.7-0.8c-1.3-0.5-2.4-1.3-3.3-2.2
		c-0.9-0.9-1.5-2-1.9-3.3C144.5,44.7,144.3,43.3,144.3,41.8z M157.6,39.7c0-0.5-0.1-1-0.2-1.4c-0.1-0.5-0.4-0.9-0.6-1.2
		c-0.3-0.4-0.7-0.6-1.1-0.9c-0.4-0.2-1-0.3-1.7-0.3c-0.6,0-1.2,0.1-1.6,0.3c-0.5,0.2-0.8,0.5-1.1,0.9c-0.3,0.4-0.5,0.8-0.7,1.2
		c-0.2,0.5-0.3,0.9-0.4,1.4H157.6z"/>
	<path id="XMLID_32_" class="st3" d="M164.4,36.7l4.1-2V23.1l5.7-0.9v9.7l2.7-1.4l1.7,3.5l-4.4,2.2V44c0,0.5,0,1,0.1,1.4
		c0.1,0.4,0.2,0.7,0.4,1c0.2,0.3,0.5,0.5,0.9,0.7c0.4,0.2,0.9,0.3,1.6,0.3l-0.8,4.7c-1.6,0-3-0.2-4-0.5c-1-0.3-1.8-0.8-2.4-1.4
		c-0.6-0.6-1-1.3-1.2-2.2c-0.2-0.8-0.3-1.8-0.3-2.9v-6l-2.4,1.2L164.4,36.7z"/>
	<path id="XMLID_34_" class="st3" d="M197.9,47.1c0.8,0,1.5-0.1,2.1-0.2c0.5-0.1,1-0.3,1.3-0.6c0.3-0.2,0.6-0.5,0.7-0.9
		c0.1-0.3,0.2-0.7,0.2-1.1c0-0.9-0.4-1.6-1.2-2.1c-0.8-0.6-2.2-1.2-4.2-1.8c-0.9-0.3-1.7-0.7-2.6-1c-0.9-0.4-1.6-0.9-2.3-1.5
		c-0.7-0.6-1.2-1.3-1.7-2.2c-0.4-0.8-0.6-1.9-0.6-3.1c0-1.2,0.2-2.3,0.7-3.3c0.5-1,1.1-1.8,1.9-2.5s1.8-1.2,3-1.6
		c1.2-0.4,2.5-0.6,4-0.6c1.8,0,3.3,0.2,4.6,0.6s2.4,0.8,3.2,1.3l-1.7,4.7c-0.7-0.4-1.6-0.7-2.5-1c-0.9-0.3-2-0.4-3.2-0.4
		c-1.4,0-2.4,0.2-3.1,0.6c-0.6,0.4-0.9,1-0.9,1.8c0,0.5,0.1,0.9,0.3,1.2c0.2,0.3,0.6,0.6,1,0.9c0.4,0.3,0.9,0.5,1.4,0.7
		c0.5,0.2,1.1,0.4,1.8,0.7c1.4,0.5,2.6,1,3.6,1.5c1,0.5,1.9,1.1,2.5,1.7c0.7,0.7,1.2,1.4,1.5,2.3c0.3,0.9,0.5,2,0.5,3.2
		c0,2.5-0.9,4.4-2.6,5.7c-1.7,1.4-4.3,2-7.8,2c-1.2,0-2.2-0.1-3.2-0.2c-0.9-0.1-1.8-0.3-2.5-0.5c-0.7-0.2-1.3-0.4-1.9-0.6
		c-0.5-0.2-1-0.4-1.3-0.6l1.7-4.7c0.8,0.4,1.8,0.8,2.9,1.2C194.8,47,196.2,47.1,197.9,47.1z"/>
	<path id="XMLID_36_" class="st3" d="M212.3,26.7l5.7-0.9v5.9h6.8v4.7h-6.8v7c0,1.2,0.2,2.1,0.6,2.9c0.4,0.7,1.3,1.1,2.5,1.1
		c0.6,0,1.2-0.1,1.9-0.2c0.6-0.1,1.2-0.3,1.8-0.5l0.8,4.4c-0.7,0.3-1.4,0.5-2.3,0.7c-0.8,0.2-1.9,0.3-3.1,0.3
		c-1.5,0-2.8-0.2-3.8-0.6c-1-0.4-1.8-1-2.4-1.7c-0.6-0.7-1-1.7-1.3-2.7c-0.2-1.1-0.4-2.2-0.4-3.5V26.7z"/>
	<path id="XMLID_38_" class="st3" d="M235.8,31.1c1.7,0,3.1,0.2,4.2,0.6c1.1,0.4,2,0.9,2.7,1.6c0.7,0.7,1.1,1.6,1.4,2.6
		c0.3,1,0.4,2.1,0.4,3.4v11.8c-0.8,0.2-1.9,0.4-3.4,0.6c-1.4,0.2-3.2,0.4-5.2,0.4c-1.3,0-2.5-0.1-3.5-0.3c-1.1-0.2-2-0.6-2.7-1.1
		c-0.8-0.5-1.3-1.2-1.7-2c-0.4-0.8-0.6-1.9-0.6-3.1c0-1.2,0.2-2.2,0.7-3c0.5-0.8,1.1-1.5,1.9-1.9c0.8-0.5,1.7-0.8,2.7-1
		c1-0.2,2.1-0.3,3.2-0.3c0.7,0,1.4,0,2,0.1c0.6,0.1,1,0.1,1.4,0.2v-0.5c0-1-0.3-1.7-0.9-2.3c-0.6-0.6-1.6-0.9-3-0.9
		c-1,0-1.9,0.1-2.8,0.2c-0.9,0.1-1.7,0.3-2.4,0.6l-0.7-4.6c0.3-0.1,0.7-0.2,1.2-0.3c0.5-0.1,1-0.2,1.6-0.3s1.2-0.2,1.8-0.2
		C234.5,31.2,235.1,31.1,235.8,31.1z M236.2,47.7c0.6,0,1.1,0,1.6,0c0.5,0,0.9-0.1,1.2-0.1v-4.3c-0.2-0.1-0.6-0.1-1-0.2
		s-0.9-0.1-1.3-0.1c-0.5,0-1,0-1.5,0.1c-0.5,0.1-0.9,0.2-1.2,0.4c-0.4,0.2-0.6,0.4-0.8,0.7c-0.2,0.3-0.3,0.7-0.3,1.1
		c0,0.9,0.3,1.5,0.9,1.8C234.4,47.5,235.2,47.7,236.2,47.7z"/>
	<path id="XMLID_41_" class="st3" d="M249.6,32.4c1-0.3,2.2-0.5,3.7-0.8c1.5-0.2,3.1-0.4,4.8-0.4c1.7,0,3.1,0.2,4.2,0.7
		c1.1,0.4,2,1.1,2.7,1.9c0.7,0.8,1.1,1.8,1.4,2.9c0.3,1.1,0.4,2.4,0.4,3.7v11.3h-5.7V41.1c0-1.8-0.2-3.1-0.7-3.9
		c-0.5-0.8-1.4-1.1-2.7-1.1c-0.4,0-0.8,0-1.3,0.1s-0.9,0.1-1.2,0.1v15.4h-5.7V32.4z"/>
	<path id="XMLID_43_" class="st3" d="M271,41.8c0-1.8,0.3-3.3,0.8-4.7c0.5-1.3,1.3-2.4,2.1-3.3s1.9-1.6,3.1-2
		c1.2-0.5,2.3-0.7,3.6-0.7c2.8,0,5.1,0.9,6.7,2.6c1.6,1.7,2.5,4.3,2.5,7.7c0,0.3,0,0.7,0,1.1c0,0.4-0.1,0.7-0.1,1h-12.8
		c0.1,1.2,0.7,2.1,1.6,2.8c1,0.7,2.3,1,3.9,1c1,0,2.1-0.1,3.1-0.3c1-0.2,1.8-0.4,2.5-0.7l0.8,4.6c-0.3,0.2-0.7,0.3-1.2,0.5
		c-0.5,0.2-1.1,0.3-1.7,0.4c-0.6,0.1-1.3,0.2-2,0.3c-0.7,0.1-1.4,0.1-2.1,0.1c-1.8,0-3.4-0.3-4.7-0.8c-1.3-0.5-2.4-1.3-3.3-2.2
		c-0.9-0.9-1.5-2-1.9-3.3C271.2,44.7,271,43.3,271,41.8z M284.3,39.7c0-0.5-0.1-1-0.2-1.4s-0.4-0.9-0.6-1.2
		c-0.3-0.4-0.7-0.6-1.1-0.9s-1-0.3-1.7-0.3c-0.6,0-1.2,0.1-1.6,0.3c-0.5,0.2-0.8,0.5-1.1,0.9c-0.3,0.4-0.5,0.8-0.7,1.2
		c-0.2,0.5-0.3,0.9-0.4,1.4H284.3z"/>
	<path id="XMLID_46_" class="st3" d="M293.2,41.7c0-1.4,0.2-2.8,0.7-4.1c0.5-1.3,1.1-2.4,2-3.3c0.9-1,2-1.7,3.2-2.3
		c1.3-0.6,2.7-0.8,4.3-0.8c1.1,0,2,0.1,2.9,0.3s1.7,0.5,2.6,0.8l-1.2,4.5c-0.5-0.2-1.1-0.4-1.7-0.5c-0.6-0.2-1.3-0.2-2.1-0.2
		c-1.7,0-2.9,0.5-3.7,1.6c-0.8,1-1.2,2.4-1.2,4.1c0,1.8,0.4,3.2,1.2,4.2s2.1,1.5,4,1.5c0.7,0,1.4-0.1,2.2-0.2
		c0.8-0.1,1.5-0.3,2.2-0.6l0.8,4.6c-0.7,0.3-1.5,0.5-2.5,0.7c-1,0.2-2.1,0.3-3.3,0.3c-1.8,0-3.4-0.3-4.7-0.8
		c-1.3-0.5-2.4-1.3-3.2-2.2c-0.8-0.9-1.5-2-1.9-3.3C293.4,44.6,293.2,43.2,293.2,41.7z"/>
	<path id="XMLID_48_" class="st3" d="M318.8,38.9c0.6-0.6,1.1-1.2,1.7-1.9c0.6-0.7,1.2-1.3,1.7-2c0.6-0.6,1.1-1.3,1.6-1.8
		c0.5-0.6,0.9-1.1,1.3-1.5h6.7c-1.3,1.5-2.7,3-3.9,4.4c-1.3,1.4-2.7,2.9-4.2,4.4c0.8,0.7,1.5,1.5,2.4,2.5c0.8,0.9,1.6,1.9,2.4,2.9
		c0.8,1,1.5,2,2.1,3c0.6,1,1.2,1.9,1.6,2.8h-6.5c-0.4-0.7-0.9-1.4-1.4-2.2c-0.5-0.8-1.1-1.6-1.7-2.4c-0.6-0.8-1.2-1.6-1.8-2.3
		c-0.6-0.7-1.3-1.4-1.9-1.9v8.7h-5.7V23.1l5.7-0.9V38.9z"/>
	<path id="XMLID_50_" class="st3" d="M341.4,25.9c0,1-0.3,1.9-1,2.5c-0.7,0.6-1.5,0.9-2.4,0.9s-1.7-0.3-2.4-0.9
		c-0.7-0.6-1-1.4-1-2.5c0-1,0.3-1.9,1-2.5s1.5-0.9,2.4-0.9s1.7,0.3,2.4,0.9S341.4,24.9,341.4,25.9z M340.8,51.7h-5.7v-20h5.7V51.7z"
		/>
</g>
<g id="XMLID_2_">
</g>
<g id="XMLID_59_">
</g>
<g id="XMLID_60_">
</g>
<g id="XMLID_61_">
</g>
<g id="XMLID_62_">
</g>
<g id="XMLID_63_">
</g>
</svg>
